<mxfile host="app.diagrams.net" modified="2024-05-23T14:45:39.981Z" agent="Mozilla/5.0 (Windows NT 10.0; Win64; x64) AppleWebKit/537.36 (KHTML, like Gecko) Chrome/125.0.0.0 Safari/537.36" version="24.4.6" etag="Kdm7skVyt-GTVTsTzR3c" type="github">
  <diagram name="第 1 页" id="-xqpKQafpmL8MQtrppTi">
    <mxGraphModel>
      <root>
        <mxCell id="0" />
        <mxCell id="1" parent="0" />
      </root>
    </mxGraphModel>
  </diagram>
</mxfile>
